<svg width="1254" height="1254" viewBox="0 0 1254 1254" fill="none" xmlns="http://www.w3.org/2000/svg">
<rect width="1254" height="1254" fill="black"/>
<path d="M734.1 410.19C730.22 402.31 725.88 394.83 721.36 387.31C703.31 357.24 684.73 327.38 665.99 297.72H256.72C390.09 521.15 525.13 743.62 659.84 966.25L659.71 971.2L627.25 1025L143 231.49H701.6C701.67 233 702.23 234.36 703.03 235.63C740.8 294.99 774.94 356.7 812.59 416.15L811.85 421.09L776.32 479.91L472.27 480.18L469.76 478.94L431.66 417.69C428.38 417.28 430.06 415.47 432.28 414.55C533.51 414.66 634.73 414.6 735.95 414.36C735.47 412.86 734.84 411.47 734.08 410.19H734.1Z" fill="white"/>
<path d="M1042.03 231.49C959.941 364.88 878.221 498.48 796.861 632.29C729.261 743.46 661.911 854.78 594.801 966.26L594.931 971.21L627.391 1025.01L1111.64 231.5H1042.03V231.49Z" fill="white"/>
<path d="M741.36 813.86C659.64 680.77 577.91 547.68 496.19 414.59H426.58C515.85 560.32 605.12 706.04 694.4 851.77L741.36 813.85V813.86Z" fill="white"/>
<path d="M1104.02 231.04C1060.18 291.67 1016.34 352.29 972.51 412.92C933.14 351.61 893.77 290.3 854.4 229C937.61 229.68 1020.82 230.36 1104.02 231.05V231.04Z" fill="white"/>
</svg>
